<svg xmlns="http://www.w3.org/2000/svg" viewBox="0 0 132.292 47.625" height="180" width="500"><defs><path id="b" d="M216.469-42.386h200.827v29.771H216.469z"/></defs><text y="103.028" x="143.094" style="line-height:1.25;-inkscape-font-specification:'JetBrains Mono Bold';font-variant-ligatures:normal;font-variant-caps:normal;font-variant-numeric:normal;font-variant-east-asian:normal" font-weight="700" font-size="10.583" font-family="JetBrains Mono" letter-spacing="-.529" stroke-width=".265"/><g transform="matrix(.73682 0 0 .73682 -58.622 -18.675)"><path fill="#2f72a0" d="M104.952 78.707c-.565-.314-5.27-3.64-6.526-4.624l21.941-.193 1.424-4.293c4.545-13.806 5.033-15.01 5.062-15.068 2.94 2.107 4.203 3.008 4.287 3.091-2.812 8.994-6.437 19.414-6.774 20.775-1.194.198-19.037.522-19.414.312z" stroke="null" stroke-width=".06"/><path fill="#5fb9ce" d="M124.367 78.397c.255-1.022 2.833-9.156 2.917-9.595.042-.168.356-1.11.691-2.095l2.828-9.215c.033.014-15.801-11.846-15.758-11.92 1.398-1.04 2.47-1.803 3.851-2.835 16.347 11.856 17.918 12.912 17.918 13.016 0 .189-1.99 6.43-3.666 11.478-1.298 4.493-1.77 6.084-1.801 6.105-3.456 2.493-6.896 5.166-6.98 5.061z" stroke="null" stroke-width=".06"/><path fill="#e07674" d="M92.573 55.263c2.283-7.414 2.513-7.668 2.536-7.726l6.668 21.27c18.85 0 18.386.088 20.28.107-1.047 3.253-1.57 5.068-1.6 5.016-.03-.05-22.01.157-21.993.17.017.013-4.005-12.186-6.007-18.278z" stroke="null" stroke-width=".06"/><path fill="#ee9464" d="M100.945 66.25c-.44-1.423-1.403-4.356-2.115-6.555-2.786-8.503-3.754-12.16-3.758-12.187-.005-.026.91-.63 2.313-1.636.796-.565 2.345-1.675 3.435-2.492 2.91-2.137 5.089-3.707 7.372-5.362l2.01-1.466 4.273.042 4.252.063-17.74 12.88.46 1.508c.755 2.597 2.095 6.786 3.561 11.268.775 2.367 1.571 4.796 1.739 5.404l.335 1.089h-5.32z" stroke="null" stroke-width=".06"/><path fill="#f7c866" d="M117.898 43.61c-5.145 3.784-10.197 7.428-15.342 11.212l-1.664-5.222c5.905-4.293 11.87-8.647 17.775-12.94l15.547 10.95c1.999 6.56 2.235 6.86 2.65 8.134l-9.07-6.353-8.932-6.493z" stroke="null" stroke-width=".06"/><path style="line-height:1.25;-inkscape-font-specification:'Raleway Bold'" d="M153.578 45.001l-2.194 1.802v18.8h3.781v-8.635a3.85 3.85 0 01.621-1.242c.283-.377.593-.696.932-.96a3.986 3.986 0 011.072-.649c.376-.15.734-.226 1.073-.226.79 0 1.4.282 1.834.847.432.545.65 1.402.65 2.568v8.297h3.78v-9.228c0-.734-.065-1.45-.197-2.145a5.398 5.398 0 00-.705-1.863 3.621 3.621 0 00-1.412-1.298c-.602-.338-1.382-.508-2.342-.508-1.129 0-2.164.264-3.104.79-.922.508-1.656 1.242-2.202 2.202V45zM167.812 68.482q.48.141.93.198.452.084.763.084.367 0 .677-.14.31-.142.565-.509.254-.338.508-.96.254-.62.536-1.552l-5.842-14.788h3.895l4.007 11.515 3.556-11.515h3.556l-6.209 17.724q-.536 1.552-1.834 2.54-1.298.987-3.218.987-.451 0-.93-.084-.452-.057-.96-.226z" font-weight="700" font-size="28.222" font-family="Raleway" letter-spacing="-.529" fill="#382a59"/><g style="line-height:1.25;-inkscape-font-specification:'Raleway Bold'"><path style="-inkscape-font-specification:'Raleway Bold'" d="M698.12 210.084l-8.296 6.812v71.053h12.48v-9.705c1.92 3.342 4.553 5.973 7.895 7.893 3.342 1.92 7.146 2.88 11.412 2.88 3.698 0 7.148-.746 10.348-2.24 3.2-1.493 5.972-3.52 8.318-6.08 2.347-2.63 4.162-5.69 5.442-9.174 1.35-3.484 2.025-7.253 2.025-11.306 0-3.911-.603-7.644-1.812-11.2-1.138-3.555-2.81-6.65-5.014-9.28a24.313 24.313 0 00-7.68-6.294c-2.986-1.564-6.293-2.345-9.92-2.345-4.337 0-8.143.959-11.414 2.879-3.2 1.848-5.794 4.48-7.785 7.894v-31.787zm20.398 33.172c2.133 0 4.089.462 5.867 1.387a14.535 14.535 0 014.586 3.734c1.35 1.564 2.382 3.377 3.093 5.44.712 2.062 1.067 4.232 1.067 6.507 0 2.276-.39 4.408-1.172 6.399-.711 1.99-1.743 3.733-3.094 5.226-1.35 1.494-2.986 2.703-4.906 3.627-1.92.853-4.02 1.281-6.295 1.281-1.351 0-2.736-.214-4.158-.64a18.46 18.46 0 01-3.947-1.92 18.756 18.756 0 01-3.307-2.986 12.678 12.678 0 01-2.133-3.84v-13.334c1.351-3.058 3.271-5.618 5.76-7.68 2.56-2.133 5.439-3.201 8.639-3.201z" transform="matrix(.26458 0 0 .26458 0 -10.583)" stroke-width="1" id="a" font-style="normal" font-variant="normal" font-weight="700" font-stretch="normal" font-size="28.222" font-family="Raleway" letter-spacing="-.529" fill="#382a59" fill-opacity="1"/></g><path d="M208.707 54.089q-1.722.028-3.076.677-1.355.621-1.948 1.891v8.946h-3.781V50.815h3.47v3.16q.396-.761.932-1.354.536-.62 1.157-1.072.621-.452 1.242-.678.65-.254 1.242-.254h.451q.17 0 .31.029zM210.286 65.603V50.815h3.782v14.788zm0-16.848V45h3.782v3.754zM229.869 45.001l-2.195 1.802v6.609c-.489-.847-1.176-1.534-2.06-2.06-.865-.527-1.844-.79-2.935-.79-.96 0-1.844.196-2.653.591a6.31 6.31 0 00-2.088 1.638 8.08 8.08 0 00-1.383 2.427c-.32.922-.48 1.919-.48 2.991 0 1.073.17 2.08.508 3.02a7.899 7.899 0 001.468 2.427 6.655 6.655 0 002.23 1.637 6.714 6.714 0 002.821.593 6.313 6.313 0 002.907-.706 5.435 5.435 0 002.23-2.145l.085.932c.056.545.3.987.733 1.326.433.339.988.508 1.665.508.414 0 .95-.066 1.61-.198v-3.217c-.32-.018-.547-.113-.678-.282-.132-.17-.198-.452-.198-.847V45.001zm-6.005 8.777c.377 0 .753.075 1.13.226.395.15.761.358 1.1.621.357.245.668.546.931.903.283.34.499.715.65 1.129v3.528a3.14 3.14 0 01-.593.987 4.224 4.224 0 01-1.891 1.327c-.376.113-.743.17-1.1.17a4.053 4.053 0 01-1.666-.34 3.896 3.896 0 01-1.27-.93 4.48 4.48 0 01-.846-1.384 4.667 4.667 0 01-.311-1.72c0-.584.094-1.149.282-1.694a4.635 4.635 0 01.79-1.44 3.694 3.694 0 011.214-1.016 3.484 3.484 0 011.58-.367zM240.227 65.886q-1.863 0-3.64-.593-1.779-.593-3.049-1.693l1.411-2.371q1.355.96 2.625 1.468 1.298.48 2.568.48 1.13 0 1.778-.424.65-.423.65-1.214 0-.79-.762-1.157t-2.484-.846q-1.44-.395-2.455-.762-1.016-.367-1.637-.819-.621-.48-.903-1.072-.283-.621-.283-1.468 0-1.129.424-2.032.451-.903 1.241-1.524.79-.649 1.835-.988 1.072-.338 2.314-.338 1.665 0 3.105.48 1.467.48 2.68 1.552l-1.523 2.286q-1.13-.847-2.202-1.242-1.044-.395-2.088-.395-.96 0-1.609.395t-.649 1.27q0 .395.141.65.17.253.508.45.339.198.875.396.565.17 1.383.367 1.524.395 2.597.79 1.1.395 1.778.903.705.508 1.016 1.185.338.65.338 1.58 0 2.174-1.609 3.444-1.608 1.242-4.374 1.242z" style="line-height:1.25;-inkscape-font-specification:'Raleway Bold'" font-weight="700" font-size="28.222" font-family="Raleway" letter-spacing="-.529" fill="#382a59"/><path style="line-height:1.25;-inkscape-font-specification:'Raleway Semi-Bold';text-align:start" d="M179.902 72.376q-.134.063-.369.146-.235.076-.501.076-.166 0-.312-.044-.146-.045-.26-.134-.108-.088-.171-.228-.064-.146-.064-.35v-2.076h-.438v-.54h.438v-1.092h.699v1.092h.724v.54h-.724v1.854q.012.178.108.26.101.077.247.077t.28-.05q.133-.052.196-.083zM183.363 72.547h-.698v-1.86q0-.457-.165-.673-.159-.222-.464-.222-.146 0-.292.057t-.28.165q-.126.101-.228.247-.101.14-.152.312v1.974h-.699v-4.635h.699v1.981q.19-.343.514-.533.33-.19.718-.19.31 0 .508.114.203.107.324.292.12.184.165.431.05.242.05.515zM185.685 72.61q-.387 0-.704-.132-.318-.14-.547-.375-.222-.235-.349-.546-.12-.311-.12-.66 0-.35.12-.661.127-.317.35-.552.228-.242.546-.375.317-.14.71-.14.388 0 .7.14.317.14.539.375.222.228.337.54.12.304.12.64 0 .077-.006.147-.006.063-.013.108h-2.66q.019.222.101.4.09.178.223.31.14.128.31.198.179.07.37.07.139 0 .272-.032.14-.038.254-.102.114-.07.203-.165.09-.095.14-.21l.597.172q-.171.375-.572.616-.393.235-.92.235zm1.01-1.974q-.019-.21-.108-.387-.082-.178-.216-.299-.133-.127-.311-.197t-.375-.07q-.196 0-.374.07-.172.07-.305.197-.133.12-.216.299-.082.178-.102.387zM193.492 69.226h.667l-1.397 3.321h-.578l-.616-1.543-.616 1.543h-.577l-1.404-3.32h.667l1.073 2.647.483-1.232-.578-1.41h.571l.381 1.042.375-1.041h.571l-.571 1.41.483 1.231zM196.004 72.61q-.387 0-.705-.132-.317-.14-.546-.375-.222-.235-.35-.546-.12-.311-.12-.66 0-.35.12-.661.128-.317.35-.552.229-.242.546-.375.318-.14.711-.14.388 0 .699.14.317.14.54.375.222.228.336.54.12.304.12.64 0 .077-.005.147-.006.063-.013.108h-2.66q.019.222.101.4.09.178.222.31.14.128.312.198.177.07.368.07.14 0 .273-.032.14-.038.254-.102.114-.07.203-.165.089-.095.14-.21l.597.172q-.172.375-.572.616-.393.235-.92.235zm1.01-1.974q-.02-.21-.108-.387-.083-.178-.216-.299-.133-.127-.311-.197t-.375-.07q-.197 0-.375.07-.171.07-.304.197-.134.12-.216.299-.083.178-.102.387zM200.073 72.61q-.381 0-.693-.177-.304-.184-.482-.489v.603h-.616v-4.635h.698v1.943q.197-.317.49-.502.298-.184.698-.184.33 0 .603.146.273.14.464.381.196.235.298.553.108.31.108.654 0 .355-.12.667-.121.31-.33.546-.21.228-.502.362-.286.133-.616.133zm-.185-.596q.229 0 .42-.089.19-.095.323-.248.14-.152.216-.349.076-.203.076-.425 0-.222-.076-.426-.07-.21-.203-.362-.127-.158-.311-.254-.178-.095-.394-.095-.324 0-.578.21-.247.21-.38.508v.876q.037.146.133.267.095.114.222.203.127.089.273.14.146.044.28.044zM203.622 70.884q0-.35.12-.66.122-.312.344-.547.228-.235.546-.368.317-.14.711-.14.514 0 .883.229.374.222.559.597l-.68.216q-.12-.21-.324-.324-.203-.12-.45-.12-.21 0-.394.082-.178.082-.311.235-.134.146-.21.349-.076.203-.076.45 0 .242.076.452.082.203.216.355.14.153.317.241.185.083.388.083.127 0 .254-.032.127-.038.228-.101.108-.064.184-.146.083-.083.121-.178l.686.203q-.165.375-.553.616-.387.235-.914.235-.387 0-.705-.14-.317-.14-.546-.374-.222-.242-.35-.553-.12-.311-.12-.66zM208.84 72.61q-.393 0-.711-.139-.311-.14-.533-.374-.223-.235-.343-.547-.12-.317-.12-.66t.12-.654q.12-.317.343-.552.228-.235.54-.375.317-.14.704-.14.388 0 .699.14.317.14.54.375.228.235.349.552.12.311.12.654t-.12.66q-.12.312-.35.547-.222.235-.54.374-.31.14-.698.14zm-.99-1.714q0 .242.076.445t.21.356q.133.146.31.234.185.083.394.083.21 0 .388-.083.184-.088.317-.24.133-.153.21-.356.076-.204.076-.445 0-.235-.076-.438-.077-.21-.21-.362t-.317-.235q-.178-.089-.388-.089-.203 0-.387.089-.178.089-.311.241-.134.153-.216.362-.076.203-.076.438zM216.248 72.547h-.699v-1.86q0-.464-.152-.68-.152-.215-.444-.215-.299 0-.547.222-.24.216-.349.565v1.968h-.698v-1.86q0-.47-.153-.68-.152-.215-.438-.215-.298 0-.546.215-.248.216-.356.566v1.974h-.698v-3.32h.635v.666q.197-.35.514-.533.324-.19.737-.19t.648.215q.24.216.298.54.21-.368.527-.559.318-.197.724-.197.292 0 .483.115.196.107.31.292.115.184.16.431.044.242.044.515zM218.945 72.61q-.4 0-.705-.19-.305-.19-.482-.495V73.9h-.699v-4.674h.616v.597q.19-.298.489-.476.305-.178.686-.178.343 0 .628.14.286.14.496.375.21.235.324.546.12.31.12.654 0 .362-.108.68-.108.31-.305.545-.196.229-.47.369-.266.133-.59.133zm-.229-.596q.223 0 .4-.095.185-.095.312-.254.133-.159.203-.362.07-.203.07-.42 0-.228-.083-.431-.076-.203-.216-.356-.133-.152-.324-.241-.19-.089-.412-.089-.134 0-.28.05-.146.052-.273.14-.127.09-.222.21-.095.114-.133.254v.87q.063.153.165.286.101.133.222.228.127.096.273.153.146.057.298.057zM222.545 72.61q-.394 0-.711-.139-.312-.14-.534-.374-.222-.235-.343-.547-.12-.317-.12-.66t.12-.654q.121-.317.343-.552.229-.235.54-.375.317-.14.705-.14.387 0 .698.14.318.14.54.375.229.235.35.552.12.311.12.654t-.12.66q-.121.312-.35.547-.222.235-.54.374-.31.14-.698.14zm-.99-1.714q0 .242.075.445.077.203.21.356.133.146.311.234.184.083.394.083.21 0 .387-.083.184-.088.318-.24.133-.153.21-.356.075-.204.075-.445 0-.235-.076-.438-.076-.21-.21-.362-.133-.152-.317-.235-.178-.089-.387-.089-.203 0-.388.089-.177.089-.31.241-.134.153-.217.362-.076.203-.076.438zM227.85 72.547h-.698v-1.86q0-.47-.152-.68-.146-.215-.438-.215-.153 0-.305.057-.153.057-.286.165-.133.101-.241.247-.102.14-.159.312v1.974h-.698v-3.32h.635v.666q.19-.336.552-.527.362-.197.8-.197.299 0 .489.108t.298.299q.115.184.16.431.044.242.044.515zM230.173 72.61q-.388 0-.705-.132-.318-.14-.546-.375-.223-.235-.35-.546-.12-.311-.12-.66 0-.35.12-.661.127-.317.35-.552.228-.242.546-.375.317-.14.71-.14.388 0 .7.14.317.14.54.375.221.228.336.54.12.304.12.64 0 .077-.006.147l-.012.108h-2.661q.019.222.102.4.089.178.222.31.14.128.311.198.178.07.368.07.14 0 .273-.032.14-.038.254-.102.115-.07.204-.165.088-.095.14-.21l.596.172q-.171.375-.571.616-.394.235-.921.235zm1.01-1.974q-.02-.21-.109-.387-.082-.178-.216-.299-.133-.127-.31-.197-.179-.07-.375-.07-.197 0-.375.07-.172.07-.305.197-.133.12-.216.299-.082.178-.101.387zM235.429 72.547h-.699v-1.86q0-.47-.152-.68-.146-.215-.439-.215-.152 0-.304.057-.153.057-.286.165-.133.101-.241.247-.102.14-.16.312v1.974h-.698v-3.32h.635v.666q.19-.336.553-.527.362-.197.8-.197.298 0 .489.108.19.108.298.299.115.184.159.431.045.242.045.515zM238.056 72.376q-.133.063-.368.146-.235.076-.502.076-.165 0-.311-.044-.146-.045-.26-.134-.108-.088-.172-.228-.063-.146-.063-.35v-2.076h-.438v-.54h.438v-1.092h.698v1.092h.724v.54h-.724v1.854q.013.178.108.26.102.077.248.077.146 0 .28-.05.133-.052.196-.083zM239.746 72.61q-.4 0-.8-.126-.393-.133-.68-.375l.28-.444q.299.216.59.33.293.108.598.108.31 0 .489-.12.184-.121.184-.344 0-.21-.203-.304-.204-.096-.635-.21-.312-.083-.534-.159-.222-.076-.362-.178-.14-.101-.203-.234-.063-.134-.063-.324 0-.254.095-.451.101-.197.273-.33.178-.14.413-.21.234-.07.508-.07.374 0 .698.115.324.114.578.33l-.299.419q-.463-.368-.984-.368-.266 0-.45.114-.178.108-.178.35 0 .1.038.17t.12.121q.09.051.223.095.14.039.342.09.337.082.578.164.248.083.407.197.158.108.235.26.076.147.076.356 0 .476-.362.756-.356.273-.972.273z" font-weight="600" font-size="6.35" font-family="Raleway" letter-spacing="0" fill="#382a59"/></g></svg>