<svg width="368" height="108" viewBox="0 0 368 108" fill="none" xmlns="http://www.w3.org/2000/svg">
	<style>
		@media (prefers-color-scheme: dark) { path.text { fill: #2F72A0; } }
	</style>
	<path class="text" d="M121.758 25.3948L116.479 29.744V75.118H125.576V54.2773C125.889 53.1956 126.395 52.1799 127.07 51.2798C127.751 50.3699 128.497 49.5999 129.313 48.9628C130.085 48.3075 130.955 47.7789 131.892 47.3964C132.797 47.0344 133.658 46.851 134.474 46.851C136.375 46.851 137.842 47.5316 138.887 48.8952C139.926 50.2106 140.45 52.279 140.45 55.0931V75.118H149.545V52.8461C149.545 51.0746 149.389 49.3465 149.071 47.6691C148.789 46.0778 148.214 44.553 147.375 43.1728C146.544 41.8412 145.37 40.759 143.978 40.04C142.529 39.2243 140.653 38.814 138.343 38.814C135.626 38.814 133.136 39.4511 130.874 40.7206C128.656 41.9467 126.89 43.7182 125.576 46.0352V25.3924L121.758 25.3948ZM156.006 82.0666C156.776 82.2934 157.522 82.4527 158.244 82.5444C158.969 82.6796 159.58 82.7472 160.079 82.7472C160.668 82.7472 161.211 82.6345 161.708 82.4093C162.206 82.1808 162.659 81.7713 163.068 81.1808C163.475 80.6369 163.883 79.8646 164.29 78.8638C164.697 77.8662 165.127 76.6176 165.58 75.118L151.523 39.427H160.895L170.536 67.2186L179.092 39.427H187.648L172.709 82.2041C171.849 84.7013 170.378 86.7448 168.296 88.3345C166.214 89.9226 163.633 90.7166 160.553 90.7166C159.83 90.7166 159.084 90.649 158.316 90.5139C157.591 90.4222 156.821 90.2403 156.006 89.9684V82.0666Z" fill="#0D2D43" />
	<path class="text" d="M196.661 25.3949L191.379 29.7448V75.117H199.324V68.9197C200.546 71.0538 202.223 72.7338 204.35 73.9599C206.478 75.1859 208.899 75.799 211.615 75.799C213.969 75.799 216.165 75.3226 218.203 74.3686C220.24 73.4152 222.004 72.1208 223.498 70.4861C224.992 68.8066 226.147 66.8526 226.962 64.6279C227.822 62.4031 228.251 59.9963 228.251 57.4082C228.251 54.9108 227.867 52.527 227.098 50.2563C226.373 47.9861 225.309 46.0098 223.906 44.3303C222.569 42.6675 220.905 41.2993 219.017 40.3112C217.116 39.3125 215.011 38.8138 212.702 38.8138C209.941 38.8138 207.518 39.4261 205.435 40.6522C203.398 41.8323 201.747 43.513 200.48 45.6931V25.3949H196.661ZM209.646 46.5775C211.004 46.5775 212.249 46.8725 213.381 47.4632C214.507 48.0489 215.5 48.8605 216.3 49.8476C217.16 50.8463 217.817 52.004 218.269 53.3214C218.723 54.6381 218.949 56.0238 218.949 57.4765C218.949 58.9299 218.7 60.2913 218.203 61.5627C217.75 62.8335 217.093 63.9465 216.233 64.8999C215.373 65.8539 214.332 66.6259 213.11 67.216C211.887 67.7607 210.551 68.034 209.102 68.034C208.242 68.034 207.361 67.8973 206.455 67.6253C205.572 67.3183 204.729 66.9067 203.943 66.3992C203.168 65.8498 202.461 65.2097 201.837 64.4925C201.246 63.7606 200.786 62.9308 200.48 62.0404V53.5257C201.34 51.573 202.562 49.9382 204.146 48.6215C205.776 47.2595 207.609 46.5775 209.646 46.5775V46.5775Z" fill="#0D2D43" />
	<path class="text" d="M254.403 47.3288C251.641 47.3739 249.174 47.9185 247.002 48.9628C244.828 49.962 243.266 51.4833 242.315 53.5267V75.118H233.217V39.427H241.566V47.0537C242.202 45.8292 242.949 44.7399 243.809 43.7858C244.669 42.7882 245.597 41.9258 246.593 41.1985C247.589 40.4712 248.585 39.9258 249.581 39.5621C250.624 39.1534 251.62 38.9491 252.569 38.9491H253.655C253.927 38.9491 254.176 38.9724 254.4 39.0191L254.403 47.3288ZM258.202 75.118V39.427H267.302V75.118H258.202ZM258.202 34.4551V25.3924H267.302V34.4527L258.202 34.4551ZM305.32 25.3948L300.039 29.744V45.6949C298.863 43.6506 297.21 41.9926 295.083 40.723C293.001 39.4511 290.646 38.8164 288.021 38.8164C285.711 38.8164 283.584 39.2894 281.637 40.2428C279.702 41.1884 277.99 42.536 276.613 44.1961C275.174 45.94 274.048 47.9222 273.286 50.0537C272.516 52.2789 272.131 54.6852 272.131 57.2725C272.131 59.8622 272.54 62.2926 273.353 64.5613C274.169 66.7117 275.365 68.6962 276.885 70.4189C278.378 72.0984 280.206 73.4444 282.251 74.3699C284.383 75.3343 286.699 75.8226 289.039 75.8011C291.472 75.8034 293.871 75.219 296.033 74.0971C298.284 72.9294 300.148 71.1308 301.399 68.9201L301.603 71.1695C301.738 72.4849 302.325 73.5517 303.367 74.3699C304.409 75.188 305.744 75.5959 307.373 75.5959C308.369 75.5959 309.659 75.4366 311.247 75.118V67.3538C310.477 67.3103 309.931 67.081 309.615 66.6732C309.298 66.2629 309.139 65.5822 309.139 64.6289V25.3948H305.32ZM290.872 46.5782C291.779 46.5782 292.684 46.7592 293.591 47.1237C294.541 47.4857 295.422 47.9877 296.237 48.6225C297.096 49.2138 297.845 49.9403 298.478 50.8019C299.158 51.6225 299.678 52.5275 300.042 53.5267V62.0416C299.716 62.9171 299.233 63.7247 298.615 64.4238C297.424 65.8947 295.849 67.0038 294.065 67.6265C293.16 67.8992 292.277 68.0368 291.418 68.0368C290.039 68.0506 288.673 67.771 287.41 67.2162C286.249 66.6844 285.21 65.9206 284.354 64.9716C283.478 63.9917 282.789 62.8597 282.318 61.6313C281.81 60.3072 281.557 58.8987 281.57 57.4801C281.57 56.0706 281.796 54.707 282.249 53.3916C282.671 52.1288 283.315 50.9519 284.149 49.9161C284.935 48.8966 285.931 48.06 287.07 47.464C288.25 46.8728 289.553 46.5693 290.872 46.5782V46.5782ZM330.243 75.8011C327.254 75.8011 324.335 75.324 321.485 74.3699C318.631 73.4157 316.186 72.0537 314.148 70.2838L317.543 64.5613C319.717 66.106 321.822 67.287 323.859 68.1044C325.941 68.8767 328.001 69.2629 330.038 69.2629C331.851 69.2629 333.277 68.9217 334.316 68.2395C335.359 67.5589 335.88 66.5823 335.88 65.3095C335.88 64.0384 335.269 63.1076 334.047 62.5171C332.824 61.9266 330.832 61.246 328.07 60.4752C325.76 59.8397 323.791 59.2267 322.163 58.6361C320.533 58.0456 319.22 57.3868 318.224 56.6595C317.228 55.8872 316.504 55.0247 316.052 54.0722C315.598 53.073 315.371 51.892 315.371 50.5292C315.371 48.7126 315.711 47.0778 316.391 45.6249C317.114 44.172 318.11 42.9459 319.377 41.9467C320.644 40.9025 322.116 40.1076 323.792 39.5621C325.512 39.0183 327.367 38.7464 329.36 38.7464C332.03 38.7464 334.521 39.1325 336.831 39.9049C339.184 40.6772 341.333 41.9258 343.279 43.6506L339.614 49.1679C337.802 47.8051 336.036 46.8059 334.316 46.1703C332.642 45.5348 330.967 45.217 329.292 45.217C327.752 45.217 326.462 45.5348 325.421 46.1703C324.38 46.8059 323.859 47.8276 323.859 49.2355C323.859 49.8711 323.972 50.394 324.199 50.8043C324.471 51.2114 324.879 51.5734 325.421 51.8904C325.965 52.209 326.667 52.5275 327.526 52.8461C328.433 53.1197 329.542 53.4149 330.854 53.7319C333.298 54.3674 335.381 55.003 337.103 55.6386C338.867 56.2741 340.293 57.0006 341.381 57.818C342.511 58.6354 343.326 59.5887 343.825 60.678C344.367 61.7238 344.638 62.995 344.638 64.4913C344.638 67.9893 343.348 70.76 340.767 72.8035C338.188 74.8019 334.68 75.8011 330.243 75.8011V75.8011Z" fill="#0D2D43" />
	<path d="M32.6843 17L24 31.1244L64.32 54.1467L24 77.9156L32.8704 91.2933L81.1924 61.1778V47.1156L32.6843 17Z" fill="#2F72A0" />
	<path d="M47.3723 17L38.688 31.1244L79.008 54.1467L38.688 77.9156L47.5584 91.2933L95.8803 61.1778V47.1156L47.3723 17Z" fill="#5FB9CE" />
</svg>
