<svg width="1024" height="1024" xmlns="http://www.w3.org/2000/svg" preserveAspectRatio="xMidYMid meet">
  <path fill="#2f72a0" d="m354.408229,863.507428c-9.436401,-5.242445 -87.930197,-60.735426 -108.899976,-77.161754l366.129273,-3.222402l23.76575,-71.646747c75.832609,-230.370319 83.977292,-250.471974 84.459373,-251.442148c49.058251,35.170364 70.145423,50.19577 71.543408,51.593756c-46.924261,150.081761 -107.422379,323.950106 -113.046485,346.668601c-19.921703,3.30403 -317.660409,8.705656 -323.951343,5.210693z" id="svg_13" stroke="null"/>
  <path fill="#5fb9ce" d="m678.380846,858.32813c4.261168,-17.058108 47.281887,-152.779569 48.679872,-160.118992c0.698993,-2.795971 5.941438,-18.523305 11.533379,-34.949633l47.182004,-153.778384c0.564573,0.24196 -263.672681,-197.678946 -262.951236,-198.910201c23.332025,-17.359385 41.219911,-30.083354 64.266744,-47.300141c272.786053,197.83725 298.989938,215.454665 298.989938,217.202146c0,3.145467 -33.202151,107.295372 -61.161857,191.523987c-21.670142,74.970674 -29.533663,101.529987 -30.061993,101.882261c-57.666894,41.590063 -115.078865,86.196436 -116.476851,84.448955z" id="svg_12" stroke="null"/>
  <path fill="#e07674" d="m147.83256,472.291473c38.0951,-123.7217 41.939535,-127.954474 42.327892,-128.925312l111.25633,354.932931c314.546694,0 306.818065,1.475654 338.428215,1.7863c-17.474816,54.288428 -26.203753,84.562583 -26.708555,83.708267c-0.504802,-0.854316 -367.289559,2.610294 -367.003587,2.832741c0.285972,0.222447 -66.827958,-203.343355 -100.241939,-305.015031l1.941644,-9.319896z" id="svg_11" stroke="null"/>
  <path fill="#ee9464" d="m287.541983,655.64223c-7.339423,-23.76575 -23.416254,-72.695236 -35.299129,-109.39235c-46.483011,-141.895509 -62.636029,-202.928185 -62.715173,-203.368023c-0.079143,-0.439838 15.183672,-10.523729 38.599926,-27.299553c13.28086,-9.436401 39.143589,-27.959706 57.317398,-41.590063c48.579989,-35.648625 84.927607,-61.86085 123.022707,-89.47106l33.551647,-24.464743l71.297251,0.698993l70.947754,1.048489l-296.023389,214.940241l7.688919,25.163736c12.581868,43.337545 34.949633,113.23681 59.414376,188.029024c12.931364,39.493085 26.212225,80.034659 29.008195,90.170052l5.591941,18.173809l-44.386034,0l-44.386034,0l-13.630357,-42.638552z" id="svg_10" stroke="null"/>
  <path fill="#f7c866" d="m570.44284,277.836701c-85.859599,63.142338 -170.165872,123.954688 -256.02547,187.097022l-27.765547,-87.141072c98.541395,-71.646747 198.080804,-144.291509 296.622195,-215.938256l259.426461,182.736105c33.355105,109.450475 37.288406,114.471528 44.225566,135.731152l-151.34619,-106.023964c-49.686729,-36.114619 -99.373454,-72.229242 -149.060183,-108.343861l-16.076831,11.882875z" id="svg_9" stroke="null"/>
</svg>