<svg width="1024" height="1024" xmlns="http://www.w3.org/2000/svg" preserveAspectRatio="xMidYMid meet">
 <!-- Created with Method Draw - http://github.com/duopixel/Method-Draw/ -->

 <g>
  <title>background</title>
  <rect fill="none" id="canvas_background" height="1026" width="1026" y="-1" x="-1"/>
 </g>
 <g>
  <title>Layer 1</title>
  <g stroke="null" id="svg_18">
   <g stroke="null" transform="matrix(0.3494963267846856,0,0,0.3494963267846856,-15689.092254502126,-16202.70546868749) " id="svg_16">
    <title stroke="null" transform="translate(0,-10.982797622680664) translate(-29.142236709594727,0) translate(192.23753356933594,192.23753356933594) translate(-2.861260414123535,-2.861260414123535) translate(0,-5.837860107421875) translate(0,96.66191864013672) translate(-99.24785614013672,0) translate(0,102.63700103759766) translate(-105.36624908447266,0) translate(0,-29.709341049194336) translate(-59.73352813720703,0) translate(-428.6224365234375,569.1543579101562) translate(-1136.6165771484375,-1111.07470703125) translate(46869.89453125,0) translate(0,46899.8984375) ">background</title>
    <rect stroke="null" fill="none" id="svg_14" height="2252" width="2312" y="46699.123282" x="45199.541921"/>
   </g>
   <g stroke="null" transform="matrix(0.3494963267846856,0,0,0.3494963267846856,-15689.092254502126,-16202.70546868749) " id="svg_17">
    <title stroke="null" transform="translate(0,-10.982797622680664) translate(-29.142236709594727,0) translate(192.23753356933594,192.23753356933594) translate(-2.861260414123535,-2.861260414123535) translate(0,-5.837860107421875) translate(0,96.66191864013672) translate(-99.24785614013672,0) translate(0,102.63700103759766) translate(-105.36624908447266,0) translate(0,-29.709341049194336) translate(-59.73352813720703,0) translate(-428.6224365234375,569.1543579101562) translate(-1136.6165771484375,-1111.07470703125) translate(46869.89453125,0) translate(0,46899.8984375) ">Layer 1</title>
    <path stroke="null" id="svg_13" d="m45904.632615,48830.879151c-27,-15 -251.59119,-173.77987 -311.59119,-220.77987l1047.59119,-9.22013l68,-205c216.97684,-659.14947 240.280904,-716.665538 241.660269,-719.441463c140.36843,100.63157 200.704321,143.623173 204.704321,147.623173c-134.26253,429.423 -307.36341,926.90561 -323.45544,991.90914c-57.00118,9.45369 -908.90915,24.90915 -926.90915,14.90915z" fill="#2f72a0"/>
    <path stroke="null" id="svg_12" d="m46831.602637,48816.059827c12.19231,-48.80769 135.285788,-437.142126 139.285788,-458.142126c2,-8 17,-53 33,-100l135,-440c1.61539,0.69231 -754.4362,-565.61094 -752.37196,-569.13388c66.759,-49.66972 117.9409,-86.07631 183.88389,-135.33802c780.51193,566.06389 855.48807,616.4719 855.48807,621.4719c0,9 -95,307 -175,548c-62.00392,214.51062 -84.5035,290.50373 -86.01519,291.51168c-165,119 -329.270598,246.630446 -333.270598,241.630446z" fill="#5fb9ce"/>
    <path stroke="null" id="svg_11" d="m45313.565842,47711.508431c109,-354 119.99993,-366.11107 121.11112,-368.88889l318.33333,1015.55554c900,0 877.88638,4.22223 968.33125,5.11107c-50,155.33333 -74.97576,241.95557 -76.42013,239.51115c-1.44437,-2.44442 -1050.91107,7.46873 -1050.09283,8.10521c0.81824,0.63648 -191.21219,-581.81829 -286.81829,-872.72743l5.55555,-26.66665z" fill="#e07674"/>
    <path stroke="null" id="svg_10" d="m45713.310875,48236.122691c-21,-68 -67,-208 -101,-313c-133,-406 -179.21799,-580.63038 -179.44444,-581.88887c-0.22645,-1.25849 43.44444,-30.11113 110.44444,-78.11113c38,-27 112,-80 164,-119c139,-102 243,-177 352,-256l96,-70l204,2l203,3l-847,615l22,72c36,124 100,324 170,538c37,113 75,229 83,258l16,52l-127,0l-127,0l-39,-122z" fill="#ee9464"/>
    <path stroke="null" id="svg_9" d="m46522.763899,47155.122691c-245.66667,180.66667 -486.88887,354.66664 -732.55554,535.3333l-79.44446,-249.3333c281.95259,-205 566.76076,-412.85558 848.71334,-617.85558l742.28666,522.85558c95.43764,313.16631 106.691843,327.532848 126.540863,388.362168l-433.040863,-303.362168c-142.16667,-103.33333 -284.33333,-206.66667 -426.5,-310l-46,34z" fill="#f7c866"/>
   </g>
  </g>
 </g>
</svg>